F<svg width="335" height="112" viewBox="0 0 335 112" fill="none" xmlns="http://www.w3.org/2000/svg">
<path d="M81.7112 0.335032C68.2336 0.524858 57.1629 0.680547 57.1059 0.699529C57.049 0.718512 62.3736 6.08287 68.9283 12.6376L80.8285 24.536L101.225 24.5949L121.603 24.6519L122.852 25.0939C124.397 25.6089 125.814 26.4484 127.007 27.5559C128.201 28.6636 129.144 30.0139 129.773 31.5159C132.465 37.4555 130.178 44.9536 124.872 47.6245C122.585 48.7634 121.988 48.8547 115.548 48.8736C110.511 48.8926 109.53 48.9496 108.648 49.2399C106.84 49.836 106.167 50.8934 106.706 52.3152C106.935 52.9302 112.607 58.7159 120.259 66.1723C127.027 72.746 126.776 72.5922 129.352 71.7476C130.159 71.478 132.389 70.4797 134.287 69.5571C146.09 63.7712 153.011 55.639 155.146 45.0088C155.678 41.6792 155.813 38.2981 155.55 34.9366C154.519 26.3692 151.155 18.2497 145.823 11.4646C141.383 6.21592 133.558 2.40994 123.947 0.834391C117.871 -0.184974 119.082 -0.166109 81.7112 0.335032Z" fill="#7b2ff7"/>
<path d="M22.1226 1.04622C6.87763 1.23605 1.34231 1.37284 0.994921 1.54558C0.702737 1.70648 0.472384 1.95981 0.340077 2.266C0.207771 2.5722 0.181119 2.91387 0.264189 3.23691C0.340119 3.50456 4.9358 8.25388 10.8185 14.1176L21.2589 24.558H69.5088L57.5897 12.639L45.6611 0.719727L44.2183 0.738728C43.4362 0.75771 33.4799 0.892463 22.1226 1.04622Z" fill="#7b2ff7"/>
<path d="M86.2096 56.6225C82.4036 60.3146 78.9051 63.7732 78.4039 64.3123C77.3466 65.4266 77.1359 66.0816 77.5004 66.8694C77.6541 67.1579 87.5915 77.1732 99.5885 89.0923C118.951 108.335 121.523 110.835 122.464 111.237C123.463 111.679 123.829 111.718 129.385 111.871C137.459 112.122 150.224 111.987 151.107 111.64C151.47 111.555 151.808 111.387 152.095 111.149C152.382 110.911 152.612 110.61 152.762 110.269C152.913 109.928 152.983 109.556 152.966 109.184C152.949 108.811 152.845 108.448 152.664 108.122C152.124 107.027 95.9533 50.7018 94.9358 50.2405C93.4173 49.5686 93.7248 49.3369 86.2096 56.6225Z" fill="#7b2ff7"/>
<path d="M53.9719 54.68C53.7821 54.7389 50.166 58.4102 45.9367 62.8426C39.3819 69.7447 38.2467 71.0051 38.3037 71.4359C38.3417 71.8004 43.2259 76.7796 57.8159 91.2558C73.3816 106.711 77.463 110.652 78.2127 110.998C79.0973 111.421 79.4998 111.44 87.1137 111.651C91.4968 111.766 97.8408 111.823 101.223 111.785C106.605 111.728 107.452 111.691 107.991 111.406C108.429 111.206 108.797 110.88 109.047 110.468C109.297 110.057 109.418 109.58 109.394 109.099V108.15L83.2109 81.8916C68.784 67.4554 56.6637 55.3824 56.2555 55.0939C55.9396 54.8399 55.5651 54.6688 55.1663 54.5965C54.7674 54.5243 54.3569 54.553 53.9719 54.68Z" fill="#7b2ff7"/>
<path d="M31.2304 77.3809C30.8849 77.5537 23.8671 84.3588 15.6211 92.4719C-0.719186 108.543 -0.161087 107.909 0.0686032 109.85C0.0691298 110.106 0.12426 110.358 0.230345 110.59C0.336428 110.822 0.490962 111.029 0.68359 111.196L1.18284 111.639H30.4825L31.1943 111.196C31.5739 110.967 35.6153 107.083 40.1522 102.584C47.3409 95.4712 48.4571 94.2791 48.6488 93.5881C49.0911 91.8968 49.129 91.9348 41.3823 84.4178C37.4984 80.6497 34.0588 77.4396 33.7113 77.2858C33.3171 77.1147 32.8896 77.0345 32.4601 77.0509C32.0307 77.0673 31.6104 77.1801 31.2304 77.3809Z" fill="#7b2ff7"/>
<path d="M205.711 59.1912L197.144 46.9109C196.785 46.9508 196.246 46.9708 195.527 46.9708H186.063V59.1912H178.274V17.2583H195.527C199.162 17.2583 202.317 17.8573 204.992 19.0554C207.707 20.2535 209.785 21.9707 211.222 24.2071C212.659 26.4435 213.378 29.0994 213.378 32.1743C213.378 35.3293 212.6 38.0449 211.042 40.3213C209.524 42.5977 207.328 44.2951 204.454 45.4132L214.097 59.1912H205.711ZM205.531 32.1743C205.531 29.4986 204.652 27.442 202.896 26.0043C201.138 24.5665 198.563 23.8477 195.168 23.8477H186.063V40.5609H195.168C198.563 40.5609 201.138 39.8421 202.896 38.4044C204.652 36.9268 205.531 34.85 205.531 32.1743ZM249.288 49.4867H228.322L224.189 59.1912H216.161L235.031 17.2583H242.698L261.629 59.1912H253.482L249.288 49.4867ZM246.713 43.3765L238.804 25.0458L230.958 43.3765H246.713ZM279.96 59.7902C276.726 59.7902 273.591 59.3309 270.556 58.4125C267.56 57.4939 265.184 56.2758 263.427 54.7583L266.123 48.7079C267.84 50.0658 269.937 51.184 272.413 52.0626C274.929 52.9012 277.445 53.3206 279.96 53.3206C283.075 53.3206 285.392 52.8214 286.91 51.8229C288.467 50.8246 289.246 49.5067 289.246 47.8693C289.246 46.6712 288.806 45.6928 287.928 44.9339C287.089 44.1352 286.01 43.5162 284.692 43.077C283.376 42.6377 281.578 42.1384 279.302 41.5793C276.106 40.8206 273.511 40.0618 271.515 39.3029C269.557 38.5442 267.859 37.366 266.421 35.7686C265.024 34.1312 264.325 31.9348 264.325 29.1792C264.325 26.8629 264.944 24.7663 266.183 22.8893C267.46 20.9723 269.358 19.4547 271.874 18.3366C274.43 17.2183 277.544 16.6592 281.219 16.6592C283.775 16.6592 286.291 16.9786 288.766 17.6176C291.242 18.2566 293.379 19.1752 295.176 20.3733L292.72 26.4235C290.884 25.3452 288.966 24.5266 286.969 23.9675C284.973 23.4083 283.036 23.1288 281.158 23.1288C278.084 23.1288 275.787 23.648 274.269 24.6863C272.792 25.7247 272.053 27.1025 272.053 28.8197C272.053 30.0178 272.472 30.9962 273.311 31.7551C274.19 32.5139 275.288 33.1129 276.606 33.5521C277.923 33.9915 279.72 34.4907 281.997 35.0498C285.112 35.7686 287.668 36.5274 289.664 37.3261C291.662 38.085 293.359 39.2631 294.757 40.8605C296.194 42.458 296.913 44.6145 296.913 47.3301C296.913 49.6465 296.274 51.7431 294.996 53.6201C293.758 55.4971 291.862 56.9946 289.305 58.1129C286.749 59.2311 283.635 59.7902 279.96 59.7902ZM312.557 23.8477H298.659V17.2583H334.242V23.8477H320.344V59.1912H312.557V23.8477Z" fill="#7b2ff7"/>
<path d="M204.323 100.775L204.284 81.1348L194.541 97.5015H192.77L183.026 81.2503V100.775H179.329V73.8179H182.488L193.733 92.7648L204.824 73.8179H207.981L208.019 100.775H204.323ZM228.278 101.083C225.558 101.083 223.106 100.492 220.923 99.3114C218.741 98.1048 217.022 96.4489 215.763 94.3437C214.53 92.2385 213.914 89.8893 213.914 87.2964C213.914 84.7034 214.53 82.3542 215.763 80.249C217.022 78.1439 218.741 76.5007 220.923 75.3197C223.106 74.1131 225.558 73.5098 228.278 73.5098C230.975 73.5098 233.414 74.1131 235.596 75.3197C237.779 76.5007 239.485 78.1439 240.718 80.249C241.95 82.3285 242.566 84.6777 242.566 87.2964C242.566 89.915 241.95 92.277 240.718 94.3823C239.485 96.4618 237.779 98.1048 235.596 99.3114C233.414 100.492 230.975 101.083 228.278 101.083ZM228.278 97.6555C230.256 97.6555 232.027 97.2063 233.593 96.3077C235.185 95.4092 236.43 94.1769 237.328 92.6107C238.253 91.019 238.715 89.2476 238.715 87.2964C238.715 85.3452 238.253 83.5865 237.328 82.0206C236.43 80.4288 235.185 79.1837 233.593 78.285C232.027 77.3865 230.256 76.9372 228.278 76.9372C226.302 76.9372 224.505 77.3865 222.888 78.285C221.296 79.1837 220.038 80.4288 219.114 82.0206C218.215 83.5865 217.766 85.3452 217.766 87.2964C217.766 89.2476 218.215 91.019 219.114 92.6107C220.038 94.1769 221.296 95.4092 222.888 96.3077C224.505 97.2063 226.302 97.6555 228.278 97.6555ZM266.59 86.7958C268.157 87.2322 269.389 88.0281 270.287 89.1834C271.185 90.313 271.636 91.7507 271.636 93.4965C271.636 95.8328 270.75 97.6298 268.979 98.8878C267.233 100.146 264.678 100.775 261.314 100.775H248.452V73.8179H260.545C263.625 73.8179 266 74.4341 267.668 75.6664C269.363 76.8988 270.21 78.606 270.21 80.7882C270.21 82.2002 269.877 83.4197 269.209 84.4466C268.568 85.4736 267.695 86.2566 266.59 86.7958ZM252.303 76.9372V85.5635H260.197C262.175 85.5635 263.689 85.204 264.741 84.4852C265.82 83.7406 266.36 82.6623 266.36 81.2503C266.36 79.8382 265.82 78.7729 264.741 78.0541C263.689 77.3094 262.175 76.9372 260.197 76.9372H252.303ZM261.16 97.6555C263.343 97.6555 264.986 97.2962 266.09 96.5772C267.193 95.8584 267.746 94.7288 267.746 93.1884C267.746 90.1847 265.551 88.6827 261.16 88.6827H252.303V97.6555H261.16ZM277.598 73.8179H281.449V100.775H277.598V73.8179ZM289.519 73.8179H293.371V97.4244H307.965V100.775H289.519V73.8179ZM331.947 97.4244V100.775H312.384V73.8179H331.409V77.1683H316.236V85.4479H329.752V88.7213H316.236V97.4244H331.947Z" fill="#7b2ff7"/>
</svg>
